HIERARCHY
ROOT Hips
{
	OFFSET 0.00 0.00 0.00
	CHANNELS 6 Xposition Yposition Zposition Xrotation Yrotation Zrotation
	JOINT Spine
	{
		OFFSET 0.00000 1.15266 1.72900
		CHANNELS 3 Xrotation Yrotation Zrotation
		JOINT Spine1
		{
			OFFSET 0.00000 0.40032 2.27031
			CHANNELS 3 Xrotation Yrotation Zrotation
			JOINT Spine2
			{
				OFFSET 0.00000 0.20092 2.29656
				CHANNELS 3 Xrotation Yrotation Zrotation
				JOINT Spine3
				{
					OFFSET 0.00000 0.00000 2.30533
					CHANNELS 3 Xrotation Yrotation Zrotation
					JOINT Neck
					{
						OFFSET 0.00000 -0.86449 6.05149
						CHANNELS 3 Xrotation Yrotation Zrotation
						JOINT Head
						{
							OFFSET 0.00000 -0.55043 3.12167
							CHANNELS 3 Xrotation Yrotation Zrotation
							End Site
							{
								OFFSET 0.00000 0.00000 3.73175
							}
						}
					}
					JOINT RightShoulder
					{
						OFFSET -0.78828 -1.31380 4.25672
						CHANNELS 3 Xrotation Yrotation Zrotation
						JOINT RightArm
						{
							OFFSET -3.91513 0.00000 0.00000
							CHANNELS 3 Xrotation Yrotation Zrotation
							JOINT RightForeArm
							{
								OFFSET -6.91491 0.00000 0.00000
								CHANNELS 3 Xrotation Yrotation Zrotation
								JOINT RightHand
								{
									OFFSET -6.09622 0.00000 0.00000
									CHANNELS 3 Xrotation Yrotation Zrotation
									JOINT RightHandEnd
									{
										OFFSET -1.74995 0.00000 0.00000
										CHANNELS 3 Xrotation Yrotation Zrotation
										End Site
										{
											OFFSET -1.74995 0.00000 0.00000
										}
									}
									JOINT RightHandThumb1
									{
										OFFSET -0.69998 -1.16663 -0.46665
										CHANNELS 3 Yrotation Xrotation Zrotation
										End Site
										{
											OFFSET -1.69032 -0.45292 0.00000
										}
									}
								}
							}
						}
					}
					JOINT LeftShoulder
					{
						OFFSET 0.78828 -1.31380 4.25672
						CHANNELS 3 Xrotation Yrotation Zrotation
						JOINT LeftArm
						{
							OFFSET 3.91513 0.00000 0.00000
							CHANNELS 3 Xrotation Yrotation Zrotation
							JOINT LeftForeArm
							{
								OFFSET 6.91491 0.00000 0.00000
								CHANNELS 3 Xrotation Yrotation Zrotation
								JOINT LeftHand
								{
									OFFSET 6.09622 0.00000 0.00000
									CHANNELS 3 Xrotation Yrotation Zrotation
									JOINT LeftHandEnd
									{
										OFFSET 1.74995 0.00000 0.00000
										CHANNELS 3 Xrotation Yrotation Zrotation
										End Site
										{
											OFFSET 1.74995 0.00000 0.00000
										}
									}
									JOINT LeftHandThumb1
									{
										OFFSET 0.69998 -1.16663 -0.46665
										CHANNELS 3 Yrotation Xrotation Zrotation
										End Site
										{
											OFFSET 1.69032 -0.45292 0.00000
										}
									}
								}
							}
						}
					}
				}
			}
		}
	}
	JOINT RightUpLeg
	{
		OFFSET -2.33857 0.00000 -0.68318
		CHANNELS 3 Xrotation Yrotation Zrotation
		JOINT RightLeg
		{
			OFFSET 0.00000 0.00000 -10.74496
			CHANNELS 3 Xrotation Yrotation Zrotation
			JOINT RightFoot
			{
				OFFSET 0.00000 0.00000 -10.93085
				CHANNELS 3 Xrotation Yrotation Zrotation
				JOINT RightToeBase
				{
					OFFSET 0.00000 -4.08727 -1.48765
					CHANNELS 3 Xrotation Yrotation Zrotation
					End Site
					{
						OFFSET 0.00000 -1.89187 -0.00000
					}
				}
			}
		}
	}
	JOINT LeftUpLeg
	{
		OFFSET 2.33857 0.00000 -0.68318
		CHANNELS 3 Xrotation Yrotation Zrotation
		JOINT LeftLeg
		{
			OFFSET 0.00000 0.00000 -10.74496
			CHANNELS 3 Xrotation Yrotation Zrotation
			JOINT LeftFoot
			{
				OFFSET 0.00000 0.00000 -10.93085
				CHANNELS 3 Xrotation Yrotation Zrotation
				JOINT LeftToeBase
				{
					OFFSET 0.00000 -4.08727 -1.48765
					CHANNELS 3 Xrotation Yrotation Zrotation
					End Site
					{
						OFFSET 0.00000 -1.89187 -0.00000
					}
				}
			}
		}
	}
}
MOTION
Frames: 5
Frame Time: 0.008342
-0.9554 -12.125055 28.353430000000003 -7.331864999999999 -6.920579999999999 168.015095 28.015805 -1.48457 -1.28922 8.49387 0.108195 -0.295525 12.111849999999999 1.311645 5.13178 0.9051 0.4793 0.7748249999999999 -7.224385 -0.6617649999999999 1.65844 -0.37617 -5.539414999999999 -1.41266 14.04926 -11.764685 10.89664 5.9469899999999996 -49.72895 7.407884999999999 0.0 0.0 31.392689999999998 19.540089999999996 40.68297 -6.131245 0.0 0.0 0.0 -0.0 0.0 0.0 14.746524999999998 12.45228 -4.902975 22.816015 36.073975 -38.860405 -0.0 -0.0 -14.197835 -23.006389999999996 -43.15667499999999 -15.06386 -0.0 0.0 0.0 -0.0 -0.0 0.0 -45.16041 -1.254795 -14.64243 15.29774 0.0 0.0 41.47903 -7.212495 9.01951 5.628515 0.0 0.0 -44.36404 -22.328675 26.368665 17.48589 0.0 0.0 41.279655 22.231179999999995 -26.33509 -3.41174 0.0 -0.0 
-1.45097 -18.306094218749998 31.006660625000002 -15.96460390625 -5.0050928125 167.76248625 21.814289218749998 -1.9487306249999998 -0.4087065625 6.3483915625 -0.6553617187499999 -0.10121 4.27525953125 -0.23921484375 4.793768125 -2.3030234375000003 0.62014890625 1.1160771875 -8.29372203125 -2.2201628125 0.0760265625 -3.18870328125 -5.15925078125 -3.24859203125 -2.70016203125 -7.973668125 19.932052968749996 -4.18334671875 -32.605947656249995 13.59233375 0.0 0.0 33.0375496875 23.7571871875 36.20166296875 -9.648300625000001 0.0 0.0 -0.0 0.0 0.0 0.0 0.5717878124999999 7.21793765625 -12.3341284375 6.7632146875000005 17.64304875 -27.6114103125 -0.0 -0.0 -18.25664296875 -11.52693109375 -39.201407968750004 -10.823244687499999 0.0 0.0 -0.0 -0.0 0.0 0.0 -45.9357728125 -0.24181765624999998 -1.92289078125 32.427605625 0.0 0.0 37.06515828125 -3.5667639062500003 6.81313703125 2.7642140625000002 0.0 0.0 -49.6796578125 -24.47777328125 13.788118124999999 48.42197171875 0.0 0.0 37.8387721875 8.948070937499999 -35.745168593749995 -4.52587078125 0.0 -0.0 
-1.7736531249999998 -23.0867453125 30.0288265625 -23.964265625 -3.8944640625 169.06393125 8.367878124999999 -2.78911875 0.008023437500000001 3.8904984375 -1.3288953125 -0.2113515625 -0.997678125 -3.0902781249999998 3.5134484374999997 -4.288435937499999 0.3089953125 1.194946875 -12.28030625 -3.4857859374999998 -0.36187499999999995 -5.310160937499999 -1.5264609375 -2.8992390625 -12.977826562499999 -8.3783046875 14.798987499999999 -21.69876875 -29.630032812499998 31.277306250000002 -0.0 0.0 42.686606250000004 35.454104687500006 34.756164062500005 -16.5747921875 0.0 0.0 0.0 0.0 0.0 0.0 -8.0398515625 5.6623890625 -10.58988125 -16.01244375 2.4359296875 -31.089698437499997 -0.0 -0.0 -21.212046875 -5.8221328125 -40.0422 -4.8965531250000005 0.0 -0.0 -0.0 -0.0 -0.0 -0.0 -34.299306249999994 1.3679687500000002 -3.3372984375 48.1190625 0.0 0.0 34.760604687500006 -5.126 13.218528125 1.60185625 0.0 0.0 -34.657081250000005 -24.48159375 20.485798437499998 60.255456249999995 0.0 0.0 39.2729234375 14.486662499999998 -32.2899796875 -5.955259375000001 0.0 -0.0 
-2.11550484375 -28.539951875000003 26.30161484375 -27.764675 -4.2450665625 172.00222296875 2.6668306250000002 -4.3325603125 -0.135446875 1.7507814062500002 -1.30237921875 -0.1887659375 -1.26984296875 -4.115130468749999 4.416490312500001 -4.86065140625 0.026036875 1.522519375 -20.46266890625 0.47021531250000004 -1.11764640625 -2.97271078125 -0.65725828125 -3.244205625 -18.61862859375 3.90771921875 13.090544375 -53.697996875 -48.196900156249995 20.935802031250002 -0.0 0.00010000000000000002 64.45763109375 45.917607187499996 31.93628578125 -19.89427203125 0.0 0.0 0.0 0.0 0.0 -0.0 -8.8806296875 -6.53309125 -16.34243828125 -47.517768437499996 8.24715046875 -23.66403375 -0.0 -0.0 -42.8648884375 -14.15806359375 -53.208963593750006 -12.49608671875 0.0 0.0 0.0 0.0 0.0 0.0 -7.7629670312500005 -2.02248203125 -2.6376757812499996 18.72157453125 0.0 0.0 38.64131640625 -7.0361509374999995 18.141539218749998 -1.61706078125 0.0 -0.0 -8.388473125 -16.2729334375 22.614415 25.828675 0.0 0.0 36.68812078125 7.22960953125 -28.4718484375 -6.899585625 0.0 -0.0 
-2.726545625 -36.7926225 21.878318125 -27.775785000000003 -3.3890631250000007 171.78401625 17.902285000000003 -4.161593125 0.30119562499999997 6.19200625 -1.2412331250000002 -0.12703375 0.638864375 -1.0098756250000003 4.905018125000001 -8.757710000000001 0.739851875 0.5201037500000001 -35.944030625 0.216318125 2.5238125000000005 -9.905857500000002 2.9759425000000004 0.06991375 -13.886185000000001 8.616172500000001 19.731129375 -49.345566875 -17.998131875000002 49.273648125 -0.0 0.0001 55.73276812500001 32.99968 36.476498750000005 -9.902986250000001 -0.0 -0.0 -0.0 0.0 -0.0 0.0 -4.530695625 -19.904289375 -18.633478125 -64.77186875000001 8.572903125000002 -24.573111875000002 -0.0 -0.0001 -62.019805625000004 -36.96963062500001 -53.81784437500001 -17.42862375 0.0 0.0 0.0 0.0 0.0 0.0 -29.681694999999998 3.9342637500000004 -15.940124375 56.474720625 0.0 0.0 -21.470700625000003 -7.245865000000001 22.69212875 -16.542212499999998 0.0 -0.0 -25.290222500000002 -28.267348750000004 38.223568125 62.24596375 0.0 0.0 -22.520185625 8.250223125 -34.645472500000004 -21.87071125 0.0 -0.0 
